G04 EAGLE Gerber RS-274X export*
G75*
%MOMM*%
%FSLAX34Y34*%
%LPD*%
%INSolder stop mask CMP*%
%IPNEG*%
%AMOC8*
5,1,8,0,0,1.08239X$1,22.5*%
G01*
G04 Define Apertures*
%ADD10R,1.173400X1.124100*%
%ADD11R,1.203200X1.854200*%
%ADD12C,0.959600*%
D10*
X-240500Y271654D03*
X-240500Y287146D03*
D11*
X-297300Y252130D03*
X-297300Y303670D03*
X-265300Y303670D03*
X-265300Y252130D03*
D10*
X-160500Y271654D03*
X-160500Y287146D03*
D11*
X-217300Y252130D03*
X-217300Y303670D03*
X-185300Y303670D03*
X-185300Y252130D03*
D10*
X-80500Y271654D03*
X-80500Y287146D03*
D11*
X-137300Y252130D03*
X-137300Y303670D03*
X-105300Y303670D03*
X-105300Y252130D03*
D10*
X-500Y271654D03*
X-500Y287146D03*
D11*
X-57300Y252130D03*
X-57300Y303670D03*
X-25300Y303670D03*
X-25300Y252130D03*
D10*
X79500Y271654D03*
X79500Y287146D03*
D11*
X22700Y252130D03*
X22700Y303670D03*
X54700Y303670D03*
X54700Y252130D03*
X102700Y252130D03*
X102700Y303670D03*
X134700Y303670D03*
X134700Y252130D03*
D10*
X159500Y271654D03*
X159500Y287146D03*
D11*
X182700Y252130D03*
X182700Y303670D03*
X214700Y303670D03*
X214700Y252130D03*
D10*
X239500Y271654D03*
X239500Y287146D03*
D11*
X262700Y252130D03*
X262700Y303670D03*
X294700Y303670D03*
X294700Y252130D03*
D10*
X-240500Y191654D03*
X-240500Y207146D03*
D11*
X-297300Y172130D03*
X-297300Y223670D03*
X-265300Y223670D03*
X-265300Y172130D03*
D10*
X-160500Y191654D03*
X-160500Y207146D03*
D11*
X-217300Y172130D03*
X-217300Y223670D03*
X-185300Y223670D03*
X-185300Y172130D03*
D10*
X-80500Y191654D03*
X-80500Y207146D03*
D11*
X-137300Y172130D03*
X-137300Y223670D03*
X-105300Y223670D03*
X-105300Y172130D03*
D10*
X-500Y191654D03*
X-500Y207146D03*
D11*
X-57300Y172130D03*
X-57300Y223670D03*
X-25300Y223670D03*
X-25300Y172130D03*
D10*
X79500Y191654D03*
X79500Y207146D03*
D11*
X22700Y172130D03*
X22700Y223670D03*
X54700Y223670D03*
X54700Y172130D03*
X102700Y172130D03*
X102700Y223670D03*
X134700Y223670D03*
X134700Y172130D03*
D10*
X159500Y191654D03*
X159500Y207146D03*
D11*
X182700Y172130D03*
X182700Y223670D03*
X214700Y223670D03*
X214700Y172130D03*
D10*
X239500Y191654D03*
X239500Y207146D03*
D11*
X262700Y172130D03*
X262700Y223670D03*
X294700Y223670D03*
X294700Y172130D03*
D10*
X-240500Y111654D03*
X-240500Y127146D03*
D11*
X-297300Y92130D03*
X-297300Y143670D03*
X-265300Y143670D03*
X-265300Y92130D03*
D10*
X-160500Y111654D03*
X-160500Y127146D03*
D11*
X-217300Y92130D03*
X-217300Y143670D03*
X-185300Y143670D03*
X-185300Y92130D03*
D10*
X-80500Y111654D03*
X-80500Y127146D03*
D11*
X-137300Y92130D03*
X-137300Y143670D03*
X-105300Y143670D03*
X-105300Y92130D03*
D10*
X-500Y111654D03*
X-500Y127146D03*
D11*
X-57300Y92130D03*
X-57300Y143670D03*
X-25300Y143670D03*
X-25300Y92130D03*
D10*
X79500Y111654D03*
X79500Y127146D03*
D11*
X22700Y92130D03*
X22700Y143670D03*
X54700Y143670D03*
X54700Y92130D03*
X102700Y92130D03*
X102700Y143670D03*
X134700Y143670D03*
X134700Y92130D03*
D10*
X159500Y111654D03*
X159500Y127146D03*
D11*
X182700Y92130D03*
X182700Y143670D03*
X214700Y143670D03*
X214700Y92130D03*
D10*
X239500Y111654D03*
X239500Y127146D03*
D11*
X262700Y92130D03*
X262700Y143670D03*
X294700Y143670D03*
X294700Y92130D03*
D10*
X-240500Y31654D03*
X-240500Y47146D03*
D11*
X-297300Y12130D03*
X-297300Y63670D03*
X-265300Y63670D03*
X-265300Y12130D03*
D10*
X-160500Y31654D03*
X-160500Y47146D03*
D11*
X-217300Y12130D03*
X-217300Y63670D03*
X-185300Y63670D03*
X-185300Y12130D03*
D10*
X-80500Y31654D03*
X-80500Y47146D03*
D11*
X-137300Y12130D03*
X-137300Y63670D03*
X-105300Y63670D03*
X-105300Y12130D03*
D10*
X-500Y31654D03*
X-500Y47146D03*
D11*
X-57300Y12130D03*
X-57300Y63670D03*
X-25300Y63670D03*
X-25300Y12130D03*
D10*
X79500Y31654D03*
X79500Y47146D03*
D11*
X22700Y12130D03*
X22700Y63670D03*
X54700Y63670D03*
X54700Y12130D03*
X102700Y12130D03*
X102700Y63670D03*
X134700Y63670D03*
X134700Y12130D03*
D10*
X159500Y31654D03*
X159500Y47146D03*
D11*
X182700Y12130D03*
X182700Y63670D03*
X214700Y63670D03*
X214700Y12130D03*
D10*
X239500Y31654D03*
X239500Y47146D03*
D11*
X262700Y12130D03*
X262700Y63670D03*
X294700Y63670D03*
X294700Y12130D03*
D10*
X-240500Y-48346D03*
X-240500Y-32854D03*
D11*
X-297300Y-67870D03*
X-297300Y-16330D03*
X-265300Y-16330D03*
X-265300Y-67870D03*
D10*
X-160500Y-48346D03*
X-160500Y-32854D03*
D11*
X-217300Y-67870D03*
X-217300Y-16330D03*
X-185300Y-16330D03*
X-185300Y-67870D03*
D10*
X-80500Y-48346D03*
X-80500Y-32854D03*
D11*
X-137300Y-67870D03*
X-137300Y-16330D03*
X-105300Y-16330D03*
X-105300Y-67870D03*
D10*
X-500Y-48346D03*
X-500Y-32854D03*
D11*
X-57300Y-67870D03*
X-57300Y-16330D03*
X-25300Y-16330D03*
X-25300Y-67870D03*
D10*
X79500Y-48346D03*
X79500Y-32854D03*
D11*
X22700Y-67870D03*
X22700Y-16330D03*
X54700Y-16330D03*
X54700Y-67870D03*
X102700Y-67870D03*
X102700Y-16330D03*
X134700Y-16330D03*
X134700Y-67870D03*
D10*
X159500Y-48346D03*
X159500Y-32854D03*
D11*
X182700Y-67870D03*
X182700Y-16330D03*
X214700Y-16330D03*
X214700Y-67870D03*
D10*
X239500Y-48346D03*
X239500Y-32854D03*
D11*
X262700Y-67870D03*
X262700Y-16330D03*
X294700Y-16330D03*
X294700Y-67870D03*
D10*
X-240500Y-128346D03*
X-240500Y-112854D03*
D11*
X-297300Y-147870D03*
X-297300Y-96330D03*
X-265300Y-96330D03*
X-265300Y-147870D03*
D10*
X-160500Y-128346D03*
X-160500Y-112854D03*
D11*
X-217300Y-147870D03*
X-217300Y-96330D03*
X-185300Y-96330D03*
X-185300Y-147870D03*
D10*
X-80500Y-128346D03*
X-80500Y-112854D03*
D11*
X-137300Y-147870D03*
X-137300Y-96330D03*
X-105300Y-96330D03*
X-105300Y-147870D03*
D10*
X-500Y-128346D03*
X-500Y-112854D03*
D11*
X-57300Y-147870D03*
X-57300Y-96330D03*
X-25300Y-96330D03*
X-25300Y-147870D03*
D10*
X79500Y-128346D03*
X79500Y-112854D03*
D11*
X22700Y-147870D03*
X22700Y-96330D03*
X54700Y-96330D03*
X54700Y-147870D03*
X102700Y-147870D03*
X102700Y-96330D03*
X134700Y-96330D03*
X134700Y-147870D03*
D10*
X159500Y-128346D03*
X159500Y-112854D03*
D11*
X182700Y-147870D03*
X182700Y-96330D03*
X214700Y-96330D03*
X214700Y-147870D03*
D10*
X239500Y-128346D03*
X239500Y-112854D03*
D11*
X262700Y-147870D03*
X262700Y-96330D03*
X294700Y-96330D03*
X294700Y-147870D03*
D10*
X-240500Y-208346D03*
X-240500Y-192854D03*
D11*
X-297300Y-227870D03*
X-297300Y-176330D03*
X-265300Y-176330D03*
X-265300Y-227870D03*
D10*
X-160500Y-208346D03*
X-160500Y-192854D03*
D11*
X-217300Y-227870D03*
X-217300Y-176330D03*
X-185300Y-176330D03*
X-185300Y-227870D03*
D10*
X-80500Y-208346D03*
X-80500Y-192854D03*
D11*
X-137300Y-227870D03*
X-137300Y-176330D03*
X-105300Y-176330D03*
X-105300Y-227870D03*
D10*
X-500Y-208346D03*
X-500Y-192854D03*
D11*
X-57300Y-227870D03*
X-57300Y-176330D03*
X-25300Y-176330D03*
X-25300Y-227870D03*
D10*
X79500Y-208346D03*
X79500Y-192854D03*
D11*
X22700Y-227870D03*
X22700Y-176330D03*
X54700Y-176330D03*
X54700Y-227870D03*
X102700Y-227870D03*
X102700Y-176330D03*
X134700Y-176330D03*
X134700Y-227870D03*
D10*
X159500Y-208346D03*
X159500Y-192854D03*
D11*
X182700Y-227870D03*
X182700Y-176330D03*
X214700Y-176330D03*
X214700Y-227870D03*
D10*
X239500Y-208346D03*
X239500Y-192854D03*
D11*
X262700Y-227870D03*
X262700Y-176330D03*
X294700Y-176330D03*
X294700Y-227870D03*
D10*
X-240500Y-288346D03*
X-240500Y-272854D03*
D11*
X-297300Y-307870D03*
X-297300Y-256330D03*
X-265300Y-256330D03*
X-265300Y-307870D03*
D10*
X-160500Y-288346D03*
X-160500Y-272854D03*
D11*
X-217300Y-307870D03*
X-217300Y-256330D03*
X-185300Y-256330D03*
X-185300Y-307870D03*
D10*
X-80500Y-288346D03*
X-80500Y-272854D03*
D11*
X-137300Y-307870D03*
X-137300Y-256330D03*
X-105300Y-256330D03*
X-105300Y-307870D03*
D10*
X-500Y-288346D03*
X-500Y-272854D03*
D11*
X-57300Y-307870D03*
X-57300Y-256330D03*
X-25300Y-256330D03*
X-25300Y-307870D03*
D10*
X79500Y-288346D03*
X79500Y-272854D03*
D11*
X22700Y-307870D03*
X22700Y-256330D03*
X54700Y-256330D03*
X54700Y-307870D03*
X102700Y-307870D03*
X102700Y-256330D03*
X134700Y-256330D03*
X134700Y-307870D03*
D10*
X159500Y-288346D03*
X159500Y-272854D03*
D11*
X182700Y-307870D03*
X182700Y-256330D03*
X214700Y-256330D03*
X214700Y-307870D03*
D10*
X239500Y-288346D03*
X239500Y-272854D03*
D11*
X262700Y-307870D03*
X262700Y-256330D03*
X294700Y-256330D03*
X294700Y-307870D03*
D12*
X209550Y-280543D03*
X-211963Y203835D03*
X271272Y-206375D03*
X-211765Y282856D03*
X273558Y-287274D03*
X-274828Y287274D03*
M02*
