G04 EAGLE Gerber RS-274X export*
G75*
%MOMM*%
%FSLAX34Y34*%
%LPD*%
%INSolder side*%
%IPPOS*%
%AMOC8*
5,1,8,0,0,1.08239X$1,22.5*%
G01*
G04 Define Apertures*
%ADD10R,3.000000X0.900000*%
%ADD11C,0.152400*%
%ADD12C,0.756400*%
G36*
X327249Y-327654D02*
X326952Y-327714D01*
X-326952Y-327714D01*
X-327227Y-327663D01*
X-327482Y-327499D01*
X-327654Y-327249D01*
X-327714Y-326952D01*
X-327714Y326952D01*
X-327663Y327227D01*
X-327499Y327482D01*
X-327249Y327654D01*
X-326952Y327714D01*
X326952Y327714D01*
X327227Y327663D01*
X327482Y327499D01*
X327654Y327249D01*
X327714Y326952D01*
X327714Y-326952D01*
X327663Y-327227D01*
X327499Y-327482D01*
X327249Y-327654D01*
G37*
%LPC*%
G36*
X-213963Y277550D02*
X-209567Y277550D01*
X-206459Y280658D01*
X-206459Y285054D01*
X-209567Y288162D01*
X-213522Y288162D01*
X-213808Y288218D01*
X-214061Y288385D01*
X-225142Y299466D01*
X-235992Y299466D01*
X-236267Y299517D01*
X-236522Y299681D01*
X-236694Y299931D01*
X-236754Y300228D01*
X-236754Y302311D01*
X-237647Y303204D01*
X-268909Y303204D01*
X-269802Y302311D01*
X-269802Y292049D01*
X-268909Y291156D01*
X-237647Y291156D01*
X-236754Y292049D01*
X-236754Y294132D01*
X-236703Y294407D01*
X-236539Y294662D01*
X-236289Y294834D01*
X-235992Y294894D01*
X-227352Y294894D01*
X-227066Y294838D01*
X-226813Y294671D01*
X-217294Y285152D01*
X-217131Y284911D01*
X-217071Y284613D01*
X-217071Y280658D01*
X-213963Y277550D01*
G37*
G36*
X-268909Y273376D02*
X-237647Y273376D01*
X-236754Y274269D01*
X-236754Y284531D01*
X-237647Y285424D01*
X-268760Y285424D01*
X-269035Y285475D01*
X-269290Y285639D01*
X-269462Y285889D01*
X-269522Y286186D01*
X-269522Y289472D01*
X-272630Y292580D01*
X-277026Y292580D01*
X-280134Y289472D01*
X-280134Y285076D01*
X-277337Y282279D01*
X-277174Y282038D01*
X-277114Y281741D01*
X-277114Y281501D01*
X-272981Y277368D01*
X-270564Y277368D01*
X-270289Y277317D01*
X-270034Y277153D01*
X-269862Y276903D01*
X-269802Y276606D01*
X-269802Y274269D01*
X-268909Y273376D01*
G37*
G36*
X-214161Y198529D02*
X-209765Y198529D01*
X-206657Y201637D01*
X-206657Y206033D01*
X-209765Y209141D01*
X-213720Y209141D01*
X-214006Y209197D01*
X-214259Y209364D01*
X-250475Y245580D01*
X-250638Y245821D01*
X-250698Y246119D01*
X-250698Y254834D01*
X-250647Y255109D01*
X-250483Y255364D01*
X-250233Y255536D01*
X-249936Y255596D01*
X-237647Y255596D01*
X-236754Y256489D01*
X-236754Y266751D01*
X-237647Y267644D01*
X-268909Y267644D01*
X-269802Y266751D01*
X-269802Y256489D01*
X-268909Y255596D01*
X-256032Y255596D01*
X-255757Y255545D01*
X-255502Y255381D01*
X-255330Y255131D01*
X-255270Y254834D01*
X-255270Y243909D01*
X-217492Y206131D01*
X-217329Y205890D01*
X-217269Y205592D01*
X-217269Y201637D01*
X-214161Y198529D01*
G37*
G36*
X238369Y-267644D02*
X269631Y-267644D01*
X270524Y-266751D01*
X270524Y-256489D01*
X269631Y-255596D01*
X256794Y-255596D01*
X256519Y-255545D01*
X256264Y-255381D01*
X256092Y-255131D01*
X256032Y-254834D01*
X256032Y-225164D01*
X256088Y-224878D01*
X256255Y-224625D01*
X268976Y-211904D01*
X269217Y-211741D01*
X269515Y-211681D01*
X273470Y-211681D01*
X276578Y-208573D01*
X276578Y-204177D01*
X273470Y-201069D01*
X269074Y-201069D01*
X265966Y-204177D01*
X265966Y-208132D01*
X265910Y-208418D01*
X265743Y-208671D01*
X251460Y-222954D01*
X251460Y-254834D01*
X251409Y-255109D01*
X251245Y-255364D01*
X250995Y-255536D01*
X250698Y-255596D01*
X238369Y-255596D01*
X237476Y-256489D01*
X237476Y-266751D01*
X238369Y-267644D01*
G37*
G36*
X238369Y-303204D02*
X269631Y-303204D01*
X270524Y-302311D01*
X270524Y-293342D01*
X270575Y-293067D01*
X270739Y-292812D01*
X270989Y-292640D01*
X271286Y-292580D01*
X275756Y-292580D01*
X278864Y-289472D01*
X278864Y-285076D01*
X275756Y-281968D01*
X271286Y-281968D01*
X271011Y-281917D01*
X270756Y-281753D01*
X270584Y-281503D01*
X270524Y-281206D01*
X270524Y-274269D01*
X269631Y-273376D01*
X238369Y-273376D01*
X237476Y-274269D01*
X237476Y-284531D01*
X238369Y-285424D01*
X256729Y-285424D01*
X257015Y-285480D01*
X257268Y-285647D01*
X261181Y-289560D01*
X268025Y-289560D01*
X268311Y-289616D01*
X268563Y-289783D01*
X268635Y-289855D01*
X268788Y-290075D01*
X268858Y-290370D01*
X268807Y-290669D01*
X268644Y-290924D01*
X268394Y-291096D01*
X268097Y-291156D01*
X238369Y-291156D01*
X237476Y-292049D01*
X237476Y-294132D01*
X237425Y-294407D01*
X237261Y-294662D01*
X237011Y-294834D01*
X236714Y-294894D01*
X227450Y-294894D01*
X227164Y-294838D01*
X226911Y-294671D01*
X215079Y-282839D01*
X214916Y-282598D01*
X214856Y-282300D01*
X214856Y-278345D01*
X211748Y-275237D01*
X207352Y-275237D01*
X204244Y-278345D01*
X204244Y-282741D01*
X207352Y-285849D01*
X211307Y-285849D01*
X211593Y-285905D01*
X211846Y-286072D01*
X225240Y-299466D01*
X236714Y-299466D01*
X236989Y-299517D01*
X237244Y-299681D01*
X237416Y-299931D01*
X237476Y-300228D01*
X237476Y-302311D01*
X238369Y-303204D01*
G37*
%LPD*%
G36*
X-270267Y282000D02*
X-270564Y281940D01*
X-270771Y281940D01*
X-271057Y281996D01*
X-271310Y282163D01*
X-271334Y282187D01*
X-271492Y282417D01*
X-271557Y282713D01*
X-271501Y283012D01*
X-271334Y283264D01*
X-271103Y283495D01*
X-270883Y283648D01*
X-270588Y283718D01*
X-270289Y283667D01*
X-270034Y283504D01*
X-269862Y283254D01*
X-269802Y282957D01*
X-269802Y282702D01*
X-269853Y282427D01*
X-270017Y282172D01*
X-270267Y282000D01*
G37*
D10*
X-253278Y279400D03*
X-253278Y297180D03*
X-253278Y261620D03*
X254000Y-279400D03*
X254000Y-261620D03*
X254000Y-297180D03*
D11*
X226187Y-297180D01*
X209550Y-280543D01*
X-252984Y244856D02*
X-252984Y261366D01*
X-252984Y244856D02*
X-211963Y203835D01*
X-252984Y261366D02*
X-253278Y261620D01*
D12*
X209550Y-280543D03*
X-211963Y203835D03*
D11*
X253746Y-223901D02*
X253746Y-261366D01*
X253746Y-223901D02*
X271272Y-206375D01*
X253746Y-261366D02*
X254000Y-261620D01*
D12*
X271272Y-206375D03*
X-211765Y282856D03*
D11*
X-226089Y297180D01*
X-253278Y297180D01*
X262128Y-287274D02*
X273558Y-287274D01*
X262128Y-287274D02*
X254508Y-279654D01*
X254000Y-279400D01*
D12*
X273558Y-287274D03*
D11*
X-274828Y282448D02*
X-274828Y287274D01*
X-274828Y282448D02*
X-272034Y279654D01*
X-253746Y279654D01*
X-253278Y279400D01*
D12*
X-274828Y287274D03*
M02*
